<svg xmlns="http://www.w3.org/2000/svg" aria-hidden="true" style="position:absolute;width:0;height:0;overflow:hidden"><defs><symbol id="icon-close" viewBox="0 0 32 32"><path stroke-linecap="round" stroke-linejoin="round" stroke-width="2.667" d="M25 7 7 25"/><path stroke-linecap="round" stroke-linejoin="round" stroke-width="2.667" d="M25 25 7 7"/></symbol><symbol id="icon-edit" viewBox="0 0 30 32"><path stroke-linecap="round" stroke-linejoin="round" stroke-width="2.773" d="M3.469 24.602c.098-.882.147-1.323.28-1.735.118-.366.286-.714.497-1.035.239-.362.552-.676 1.18-1.303L21.155 4.8a3.52 3.52 0 1 1 4.978 4.978L10.404 25.507c-.628.628-.941.941-1.303 1.18a4.236 4.236 0 0 1-1.035.497c-.412.134-.853.182-1.735.281l-3.22.358.358-3.22z"/></symbol><symbol id="icon-envelope" viewBox="0 0 37 32"><path stroke-linecap="round" stroke-linejoin="round" stroke-width="3.368" d="m1.684 7.579 13.751 9.626c1.114.78 1.67 1.169 2.276 1.32a3.375 3.375 0 0 0 1.629 0c.606-.151 1.162-.541 2.276-1.32l13.751-9.626M9.768 29.474h17.516c2.83 0 4.245 0 5.325-.551a5.045 5.045 0 0 0 2.208-2.208c.551-1.081.551-2.496.551-5.325V10.611c0-2.83 0-4.245-.551-5.325a5.045 5.045 0 0 0-2.208-2.208c-1.081-.551-2.496-.551-5.325-.551H9.768c-2.83 0-4.245 0-5.325.551a5.045 5.045 0 0 0-2.208 2.208c-.551 1.081-.551 2.496-.551 5.325V21.39c0 2.83 0 4.245.551 5.325a5.045 5.045 0 0 0 2.208 2.208c1.081.551 2.496.551 5.325.551z"/></symbol><symbol id="icon-facebook" viewBox="0 0 30 32"><path d="M30.476 16.092c0-8.466-6.823-15.33-15.238-15.33S0 7.626 0 16.092c0 7.651 5.571 13.994 12.857 15.145V20.525h-3.87v-4.433h3.87v-3.377c0-3.841 2.276-5.965 5.756-5.965 1.667 0 3.412.3 3.412.3v3.773h-1.922c-1.892 0-2.484 1.181-2.484 2.395v2.874h4.226l-.675 4.433h-3.55v10.713c7.286-1.15 12.857-7.493 12.857-15.146z"/></symbol><symbol id="icon-instagram" viewBox="0 0 30 32"><path d="M21.587 3.301a6.368 6.368 0 0 1 6.349 6.349v12.698a6.368 6.368 0 0 1-6.349 6.349H8.889a6.37 6.37 0 0 1-6.349-6.349V9.65a6.37 6.37 0 0 1 6.349-6.349h12.698zm0-2.539H8.889C4 .762 0 4.762 0 9.651v12.698c0 4.889 4 8.889 8.889 8.889h12.698c4.889 0 8.889-4 8.889-8.889V9.651c0-4.889-4-8.889-8.889-8.889z"/><path d="M23.492 9.654a1.905 1.905 0 1 1 .003-3.812 1.905 1.905 0 0 1-.004 3.813zm-8.254 1.269a5.079 5.079 0 1 1 .003 10.156 5.079 5.079 0 0 1-.004-10.155zm0-2.54a7.62 7.62 0 0 0-7.473 9.105 7.624 7.624 0 0 0 5.986 5.986 7.616 7.616 0 0 0 7.821-3.24 7.62 7.62 0 0 0-6.335-11.853z"/></symbol><symbol id="icon-lock" viewBox="0 0 30 32"><path stroke-linecap="round" stroke-linejoin="round" stroke-width="3.048" d="M22.857 14.476V9.905a7.619 7.619 0 1 0-15.238 0v4.571m1.219 15.238h12.8c2.56 0 3.84 0 4.818-.498a4.576 4.576 0 0 0 1.998-1.998c.498-.978.498-2.258.498-4.818v-.61c0-2.56 0-3.84-.498-4.818a4.576 4.576 0 0 0-1.998-1.998c-.978-.498-2.258-.498-4.818-.498h-12.8c-2.56 0-3.84 0-4.818.498a4.576 4.576 0 0 0-1.998 1.998c-.498.978-.498 2.258-.498 4.818v.61c0 2.56 0 3.84.498 4.818a4.576 4.576 0 0 0 1.998 1.998c.978.498 2.258.498 4.818.498z"/></symbol><symbol id="icon-logo" viewBox="0 0 32 32"><path d="M8.727 0h14.545a8.727 8.727 0 0 1 8.727 8.727v14.545a8.727 8.727 0 0 1-8.727 8.727H8.727A8.727 8.727 0 0 1 0 23.272V8.727A8.727 8.727 0 0 1 8.727 0z"/><path stroke-linecap="round" stroke-linejoin="round" stroke-width="1.454" d="M7.273 7.347v3.966c0 1.132.494 2.135 1.26 2.784.375.317.622.746.622 1.221v6.62c0 .736.633 1.333 1.412 1.333s1.412-.597 1.412-1.333v-6.62c0-.476.248-.904.622-1.221a3.635 3.635 0 0 0 1.26-2.784"/><path stroke-linecap="round" stroke-linejoin="round" stroke-width="1.454" d="M10.567 11.717V7.273"/><path stroke-linecap="round" stroke-linejoin="round" stroke-width="1.454" d="M23.273 8.208c0-.491-.422-.889-.941-.889h-.941c-1.559 0-2.823 1.194-2.823 2.667v5.333c0 1.159.788 2.136 1.882 2.503v4.117c0 .736.633 1.333 1.412 1.333s1.412-.597 1.412-1.333V8.207z"/></symbol><symbol id="icon-plus" viewBox="0 0 32 32"><path d="M32 16c0 8.837-7.163 16-16 16S0 24.837 0 16 7.163 0 16 0s16 7.163 16 16z"/><path stroke-linecap="round" stroke-linejoin="round" stroke-width="2.667" d="M16 9v14"/><path stroke-linecap="round" stroke-linejoin="round" stroke-width="2.667" d="M9 16h14"/></symbol><symbol id="icon-search" viewBox="0 0 32 32"><path stroke-linecap="round" stroke-linejoin="round" stroke-width="2.667" d="M14.667 25.333c5.891 0 10.667-4.776 10.667-10.667S20.558 3.999 14.667 3.999 4 8.775 4 14.666s4.776 10.667 10.667 10.667z"/><path stroke-linecap="round" stroke-linejoin="round" stroke-width="2.667" d="m28.001 28-5.8-5.8"/></symbol><symbol id="icon-swirlArrow" viewBox="0 0 48 32"><path d="m38.738 14.046-.452 2.134a.143.143 0 0 0 .044.136l1.583 1.409a.216.216 0 0 0 .36-.178l-.518-5.718a.215.215 0 0 0-.252-.191.209.209 0 0 0-.105.052l-4.281 3.86a.214.214 0 0 0 .143.373l2.127.027a.14.14 0 0 0 .125-.07l1.122-1.874a.058.058 0 0 1 .07-.023.057.057 0 0 1 .029.026.065.065 0 0 1 .006.039z"/><path stroke-linejoin="round" stroke-width=".649" d="M4.6 14.109c4.327 2.824 15.103 12.759 18.593 5.312 4.362-9.309-10.328-7.983-8.8-.592s15.679 11.132 23.437-2.181"/></symbol><symbol id="icon-twitter" viewBox="0 0 38 32"><path d="M37.647 4.51a15.806 15.806 0 0 1-4.435 1.2 7.647 7.647 0 0 0 3.398-4.204 15.506 15.506 0 0 1-4.907 1.843 7.771 7.771 0 0 0-5.64-2.407c-4.268 0-7.722 3.404-7.722 7.6a7.321 7.321 0 0 0 .199 1.733A22.004 22.004 0 0 1 2.619 2.33a7.496 7.496 0 0 0-1.05 3.82c0 2.635 1.375 4.965 3.451 6.329a7.646 7.646 0 0 1-3.512-.949v.094c0 3.686 2.667 6.753 6.196 7.451a7.899 7.899 0 0 1-2.034.267 7.452 7.452 0 0 1-1.452-.141c.981 3.019 3.837 5.216 7.22 5.278a15.659 15.659 0 0 1-9.594 3.255 15.992 15.992 0 0 1-1.843-.11 21.854 21.854 0 0 0 11.823 3.435c14.224 0 21.995-11.584 21.995-21.631 0-.329-.008-.659-.024-.98a15.57 15.57 0 0 0 3.853-3.937z"/></symbol><symbol id="icon-user" viewBox="0 0 32 32"><path stroke-linecap="round" stroke-linejoin="round" stroke-width="2.723" d="M26.667 28v-2.667A5.334 5.334 0 0 0 21.334 20H10.667a5.334 5.334 0 0 0-5.333 5.333V28"/><path stroke-linecap="round" stroke-linejoin="round" stroke-width="2.723" d="M16 14.667a5.333 5.333 0 1 0 0-10.666 5.333 5.333 0 0 0 0 10.666z"/></symbol><symbol id="icon-userIcon" viewBox="0 0 27 32"><path stroke-linecap="round" stroke-linejoin="round" stroke-width="3.048" d="M25.905 29.714c0-2.127 0-3.19-.262-4.055a6.097 6.097 0 0 0-4.064-4.064c-.865-.262-1.928-.262-4.055-.262H9.905c-2.127 0-3.19 0-4.055.262a6.094 6.094 0 0 0-4.063 4.064c-.262.865-.262 1.928-.262 4.055M20.571 9.143a6.857 6.857 0 1 1-13.714 0 6.857 6.857 0 0 1 13.714 0z"/></symbol><symbol id="icon-youtube" viewBox="0 0 43 32"><path d="M42.393 7.066c0-3.75-2.759-6.766-6.167-6.766C31.609.084 26.9.001 22.088.001h-1.5c-4.801 0-9.518.083-14.135.3-3.4 0-6.159 3.033-6.159 6.783a124.152 124.152 0 0 0-.292 8.899c-.008 2.967.086 5.936.283 8.908 0 3.75 2.759 6.791 6.159 6.791 4.851.225 9.826.325 14.885.317 5.067.017 10.029-.089 14.885-.317 3.409 0 6.167-3.042 6.167-6.791.2-2.975.292-5.942.284-8.916.019-2.967-.072-5.936-.272-8.908zm-25.14 17.091V7.782l12.085 8.183-12.085 8.191z"/></symbol></defs></svg>